<svg data-v-423bf9ae="" xmlns="http://www.w3.org/2000/svg" viewBox="0 0 395.41996318454375 60" class="font"><!----><!----><!----><g data-v-423bf9ae="" id="0ab98fc3-be43-4189-9f94-86684b47ccb7" fill="white" transform="matrix(4.754358291625977,0,0,4.754358291625977,-5.990492343902588,-5.182251930236816)"><path d="M1.26 10.50L1.74 10.50L1.74 2.37C1.74 1.90 1.72 1.60 1.72 1.60L7.55 10.50L8.22 10.50L8.22 1.09L7.76 1.09L7.76 8.81C7.76 9.51 7.78 9.98 7.78 9.98L1.93 1.09L1.26 1.09ZM13.31 10.64C14.97 10.64 15.53 9.97 16.02 8.99L15.57 8.85C15.12 9.74 14.66 10.22 13.33 10.22C11.58 10.22 10.84 8.86 10.84 7.04L10.84 6.93L16.10 6.93C16.10 6.89 16.11 6.57 16.11 6.52C16.11 4.68 15.54 3.14 13.30 3.14C11.56 3.14 10.32 4.21 10.32 6.87C10.32 9.17 11.26 10.64 13.31 10.64ZM13.30 3.54C14.92 3.54 15.60 4.62 15.60 6.37L15.60 6.51L10.84 6.51C10.88 4.33 11.98 3.54 13.30 3.54ZM22.90 8.58C22.90 7.10 21.64 6.83 20.41 6.54C19.12 6.23 18.33 5.87 18.33 4.89C18.33 4.02 19.05 3.56 20.23 3.56C21.39 3.56 22.02 3.99 22.27 4.87L22.75 4.83C22.44 3.75 21.76 3.14 20.24 3.14C18.59 3.14 17.85 3.89 17.85 4.93C17.85 6.29 18.96 6.68 20.13 6.94C21.53 7.27 22.44 7.55 22.44 8.61C22.44 9.70 21.67 10.23 20.29 10.23C19.00 10.23 18.31 9.72 18.03 8.76L17.58 8.86C17.88 10.09 18.86 10.64 20.26 10.64C21.97 10.64 22.90 9.91 22.90 8.58ZM24.16 3.67L25.16 3.67L25.16 9.42C25.16 10.08 25.38 10.64 26.36 10.64C26.78 10.64 26.92 10.63 27.22 10.61L27.22 10.18L26.53 10.18C25.87 10.18 25.63 10.00 25.63 9.32L25.63 3.67L27.17 3.67L27.17 3.28L25.63 3.28L25.63 1.23L25.16 1.23L25.16 3.28L24.16 3.28ZM31.77 10.50L32.23 10.50L32.23 2.58C32.23 2.27 32.21 1.55 32.21 1.54C32.23 1.60 32.42 2.18 32.56 2.51L35.77 10.50L36.27 10.50L39.40 2.44C39.54 2.06 39.69 1.57 39.70 1.53L39.70 2.42L39.69 10.50L40.15 10.50L40.15 1.09L39.45 1.09L36.57 8.54C36.29 9.28 36.02 10.02 36.02 10.02C36.02 10.02 35.76 9.30 35.45 8.53L32.45 1.09L31.77 1.09ZM48.86 10.22L48.30 10.22C47.85 10.22 47.74 10.00 47.74 9.60L47.74 5.54C47.74 3.93 46.89 3.14 45.25 3.14C43.69 3.14 42.88 3.86 42.71 5.05L43.20 5.10C43.39 4.00 44.03 3.54 45.23 3.54C46.62 3.54 47.25 4.21 47.25 5.60L47.25 6.33L45.54 6.33C43.57 6.33 42.39 7.07 42.39 8.57C42.39 9.79 43.18 10.64 44.66 10.64C46.00 10.64 46.89 10.01 47.25 8.83L47.25 9.63C47.25 10.22 47.46 10.64 48.20 10.64C48.50 10.64 48.73 10.63 48.86 10.61ZM44.66 10.23C43.51 10.23 42.87 9.56 42.87 8.55C42.87 7.25 43.90 6.72 45.67 6.72L47.25 6.72L47.25 7.03C47.25 8.82 46.47 10.23 44.66 10.23ZM55.47 10.50L55.94 10.50L55.94 5.60C55.94 3.72 54.94 3.14 53.59 3.14C52.28 3.14 51.42 3.98 51.17 5.07L51.14 3.28L50.69 3.28C50.72 4.07 50.72 4.42 50.72 5.03L50.72 10.50L51.20 10.50L51.20 6.43C51.20 4.55 52.19 3.56 53.49 3.56C54.61 3.56 55.47 4.05 55.47 5.66ZM64.65 10.22L64.09 10.22C63.64 10.22 63.53 10.00 63.53 9.60L63.53 5.54C63.53 3.93 62.68 3.14 61.04 3.14C59.49 3.14 58.67 3.86 58.51 5.05L59.00 5.10C59.18 4.00 59.82 3.54 61.03 3.54C62.41 3.54 63.04 4.21 63.04 5.60L63.04 6.33L61.33 6.33C59.36 6.33 58.18 7.07 58.18 8.57C58.18 9.79 58.97 10.64 60.45 10.64C61.80 10.64 62.68 10.01 63.04 8.83L63.04 9.63C63.04 10.22 63.25 10.64 63.99 10.64C64.29 10.64 64.53 10.63 64.65 10.61ZM60.45 10.23C59.30 10.23 58.66 9.56 58.66 8.55C58.66 7.25 59.70 6.72 61.46 6.72L63.04 6.72L63.04 7.03C63.04 8.82 62.26 10.23 60.45 10.23ZM68.63 10.63C70.15 10.63 70.88 9.58 71.16 8.58L71.15 8.81L71.15 10.82C71.15 12.54 70.29 13.30 68.73 13.30C67.49 13.30 66.86 12.80 66.64 12.03L66.16 12.11C66.37 12.96 67.10 13.71 68.74 13.71C70.63 13.71 71.62 12.80 71.62 10.82L71.62 4.63L71.67 3.28L71.18 3.28L71.15 4.93C70.84 3.74 69.96 3.14 68.67 3.14C66.77 3.14 65.91 4.42 65.91 6.83C65.91 9.38 66.70 10.63 68.63 10.63ZM71.15 6.76C71.15 9.13 70.15 10.21 68.75 10.21C67.10 10.21 66.40 9.20 66.40 6.82C66.40 4.55 67.19 3.54 68.74 3.54C70.42 3.54 71.15 4.68 71.15 6.76ZM76.57 10.64C78.22 10.64 78.78 9.97 79.27 8.99L78.82 8.85C78.37 9.74 77.91 10.22 76.58 10.22C74.83 10.22 74.09 8.86 74.09 7.04L74.09 6.93L79.35 6.93C79.35 6.89 79.37 6.57 79.37 6.52C79.37 4.68 78.79 3.14 76.55 3.14C74.82 3.14 73.57 4.21 73.57 6.87C73.57 9.17 74.51 10.64 76.57 10.64ZM76.55 3.54C78.18 3.54 78.85 4.62 78.85 6.37L78.85 6.51L74.09 6.51C74.13 4.33 75.24 3.54 76.55 3.54ZM84.43 3.71L84.43 3.22L84.21 3.22C83.16 3.22 82.33 4.00 82.10 4.98C82.11 4.30 82.08 3.77 82.07 3.28L81.61 3.28C81.62 3.79 81.63 4.51 81.63 5.03L81.63 10.50L82.12 10.50L82.12 6.06C82.12 5.01 82.84 3.71 84.17 3.71Z"></path></g><!----><!----></svg>